<svg xmlns="http://www.w3.org/2000/svg" viewBox="0 0 1254 1254" role="img" aria-labelledby="title desc">
  <title id="title">Openturn logo</title>
  <desc id="desc">A vector trace of the Openturn logo generated from the source PNG pixels.</desc>
  <defs>
    <radialGradient id="background" cx="50%" cy="43%" r="70%">
      <stop offset="0" stop-color="#fff" />
      <stop offset=".72" stop-color="#fbfafb" />
      <stop offset="1" stop-color="#f7f7f8" />
    </radialGradient>
    <linearGradient id="navy" x1="274" y1="257" x2="977" y2="984" gradientUnits="userSpaceOnUse">
      <stop offset="0" stop-color="#07194b" />
      <stop offset="1" stop-color="#06133d" />
    </linearGradient>
    <linearGradient id="pink" x1="862" y1="352" x2="978" y2="556" gradientUnits="userSpaceOnUse">
      <stop offset="0" stop-color="#ff0a7d" />
      <stop offset="1" stop-color="#f00067" />
    </linearGradient>
    <filter id="mark-shadow" x="0" y="0" width="100%" height="100%" color-interpolation-filters="sRGB">
      <feDropShadow dx="0" dy="8" stdDeviation="12" flood-color="#06133d" flood-opacity=".13" />
    </filter>
  </defs>
  <rect width="1254" height="1254" fill="url(#background)" />
  <g filter="url(#mark-shadow)">
    <path fill="url(#navy)" d="M 596 260.686 C 586.576 261.390, 562.034 265.185, 551 267.643 C 517.369 275.136, 481.334 289.124, 453.344 305.550 C 426.105 321.535, 405.818 337.213, 382.887 359.998 C 361.106 381.643, 347.042 399.127, 331.811 423.500 C 307.785 461.944, 290.297 507.445, 282.606 551.520 C 278.021 577.797, 276.690 595.919, 277.322 623.500 C 278.125 658.558, 281.893 684.837, 290.514 715.500 C 300.235 750.079, 312.641 779.288, 329.958 808.365 C 372.367 879.574, 439.516 935.085, 516.980 962.975 C 539.898 971.226, 569.445 977.862, 594.759 980.444 C 612.326 982.235, 639.337 982.460, 656 980.953 C 723.176 974.879, 785.888 949.266, 840.274 905.693 C 856.316 892.841, 868.562 881.327, 880.866 867.527 C 898.398 847.866, 908.386 834.848, 919.633 817 C 927.847 803.966, 929.729 800.597, 937.827 784.426 C 956.486 747.170, 968.669 706.836, 974.691 662.381 C 976.057 652.301, 976.440 642.216, 976.451 616 C 976.463 589.096, 976.118 580.137, 974.698 570.500 C 970.307 540.699, 965.138 516.915, 962.392 513.881 C 960.109 511.357, 954.813 510.503, 951.722 512.160 C 950.347 512.897, 934.113 527.842, 915.648 545.372 C 891.273 568.511, 881.774 578.155, 880.977 580.571 C 880.182 582.977, 880.178 586.585, 880.962 593.612 C 882.510 607.494, 882.283 638.329, 880.524 653.244 C 876.894 684.009, 868.829 711.898, 855.581 739.500 C 839.546 772.909, 815.378 804.293, 788.023 827.231 C 767.890 844.113, 739.298 860.937, 714.360 870.575 C 704.193 874.505, 678.615 881.988, 675.321 881.997 C 674.673 881.999, 673.436 881.293, 672.571 880.429 C 671.161 879.018, 671 866.848, 671 761.429 L 671 644 718.364 644 C 746.398 644, 767.924 643.583, 771.109 642.979 C 779.242 641.437, 788.390 636.706, 793.908 631.188 C 799.389 625.706, 802.973 619.342, 805.529 610.549 C 807.763 602.863, 807.125 590.700, 804.071 582.760 C 799.228 570.168, 788.219 559.700, 775.667 555.754 L 768.500 553.500 627.500 553.500 L 486.500 553.500 480.500 555.305 C 472.683 557.658, 461.912 564.980, 457.640 570.847 C 450.077 581.232, 447.435 590.161, 448.232 602.641 C 449.144 616.913, 455.402 628.051, 466.826 635.729 C 478.454 643.544, 477.309 643.405, 532.750 643.767 L 582 644.088 582 761.344 C 582 851.210, 581.720 878.880, 580.800 879.800 C 579.060 881.540, 576.398 881.306, 565.359 878.441 C 503.156 862.299, 447.720 821.474, 412.434 765.820 C 395.432 739.005, 381.861 705.333, 375.565 674.347 C 371.097 652.358, 369.724 635.911, 370.275 611 C 370.674 592.965, 371.280 585.623, 373.325 574 C 376.088 558.309, 380.809 540.883, 386.513 525.327 C 391.167 512.634, 403.291 487.922, 410.354 476.730 C 442.844 425.254, 490.631 387.857, 548.167 368.882 C 564.022 363.653, 581.803 359.728, 597.211 358.055 C 602.551 357.475, 614.719 357, 624.249 357 C 650.225 357, 672.600 360.306, 696 367.601 C 731.045 378.527, 761.727 395.474, 790 419.521 C 799.482 427.585, 814.754 443.108, 822.940 453 C 825.899 456.575, 829.035 460.048, 829.910 460.718 C 830.784 461.388, 833.300 461.936, 835.500 461.936 C 839.834 461.936, 842.022 460.724, 843.837 457.316 C 844.682 455.729, 845 439.629, 845 398.467 L 845 341.802 841.750 338.746 C 839.962 337.065, 833.550 331.965, 827.500 327.413 C 795.666 303.462, 755.965 283.715, 717.225 272.565 C 701.094 267.922, 677.602 263.415, 659.778 261.545 C 646.457 260.147, 609.810 259.653, 596 260.686" />
    <path fill="url(#pink)" d="M 866.385 355.415 L 862.970 358.830 863.235 455.002 L 863.500 551.174 866.306 553.587 C 870.253 556.982, 875.804 556.855, 880.173 553.270 C 883.483 550.555, 899.178 536.076, 947.946 490.748 C 962 477.685, 974.513 465.581, 975.750 463.850 C 978.374 460.182, 978.655 455.169, 976.490 450.651 C 975.660 448.918, 953.774 426.800, 927.856 401.500 C 901.938 376.200, 879.555 354.715, 878.116 353.757 C 873.984 351.003, 870.273 351.527, 866.385 355.415" />
  </g>
</svg>
